<svg xmlns="http://www.w3.org/2000/svg" width="43.229" height="52.513" viewBox="0 0 43.229 52.513">
  <g id="Group_42" data-name="Group 42" transform="translate(-176.019 -139.785)">
    <path id="Path_59" data-name="Path 59" d="M192.384,256.764c-3.869-.547-7.741-1.07-11.6-1.66a8.1,8.1,0,0,1-2.148-.754c-2.381-1.115-3.073-2.282-2.33-4.815a45.536,45.536,0,0,1,3.067-8.2,19.287,19.287,0,0,1,3.964-4.479,3.1,3.1,0,0,1,4.278-.441c3.454,2.045,7.116,1.748,10.533-.356a1.927,1.927,0,0,1,2.335-.041,14.857,14.857,0,0,1,6.225,7.152,48.465,48.465,0,0,1,2.115,6.834c.5,1.989.035,3.239-1.864,3.977a38.226,38.226,0,0,1-7.352,2,69.165,69.165,0,0,1-7.162.521Z" transform="translate(0 -64.467)" fill="#0096a5"/>
    <path id="Path_60" data-name="Path 60" d="M255.824,162.442l1.845-3.376c-1.292-.168-2.14-.234-2.97-.394-3.094-.6-4.709-2.264-4.924-5.42a59.785,59.785,0,0,1-.036-7.506c.188-3.249,1.67-5.216,4.86-5.659a37.157,37.157,0,0,1,9.067-.048,5.3,5.3,0,0,1,4.926,5.273,46.019,46.019,0,0,1-.02,7.991c-.386,3.647-2.26,5.169-5.926,5.564a3.352,3.352,0,0,0-1.852.948A7.936,7.936,0,0,1,255.824,162.442Zm4.508-16.1a5.81,5.81,0,0,0-.043-1.768c-.159-.514-.683-.916-1.045-1.367-.426.465-1.213.928-1.217,1.4a56.58,56.58,0,0,0,.365,6c.031.32.5.6.77.895.249-.313.666-.6.719-.944C260.088,149.214,260.18,147.859,260.332,146.341Zm-1.209,5.963c-.572.981-1.1,1.488-1.065,1.955a1.5,1.5,0,0,0,1.147.955,1.473,1.473,0,0,0,1.054-1.028C260.269,153.723,259.729,153.247,259.123,152.3Z" transform="translate(-49.508)" fill="#0096a5"/>
    <path id="Path_61" data-name="Path 61" d="M200.8,192.156a8.378,8.378,0,1,1,16.755.064,8.448,8.448,0,0,1-8.347,8.327A8.35,8.35,0,0,1,200.8,192.156Z" transform="translate(-16.666 -29.59)" fill="#0096a5"/>
  </g>
</svg>
