<svg xmlns="http://www.w3.org/2000/svg" width="64.476" height="53.461" viewBox="0 0 64.476 53.461">
  <g id="handshake-svgrepo-com" transform="translate(0.003 -4.016)">
    <g id="Layer_1_19_" transform="translate(-0.003 4.016)">
      <g id="Group_39" data-name="Group 39">
        <g id="Group_37" data-name="Group 37" transform="translate(0 3.966)">
          <path id="Path_54" data-name="Path 54" d="M43.534,11.571a1.331,1.331,0,0,0-.546-.329L30.677,7.376a8.747,8.747,0,0,0-8.989,2.016,5.108,5.108,0,0,0-1.086,1.5l-5.484,12.9a3.291,3.291,0,0,0,.285,2.7A5.28,5.28,0,0,0,18.9,29.265a5.106,5.106,0,0,0,4.842-1.524,5.015,5.015,0,0,0,.849-1.1l1.844-3.42a7.175,7.175,0,0,1,1.207-1.617c1.582-1.583,2.333-.859,2.653-.551,2.759,2.663,17.221,17.186,17.221,17.186a1.717,1.717,0,0,1-2.368,2.37l-4.063-4.062a1.338,1.338,0,0,0-1.893,1.892l4.063,4.064a1.715,1.715,0,0,1-2.366,2.366l-4.064-4.062A1.339,1.339,0,0,0,34.928,42.7l4.063,4.063a1.716,1.716,0,0,1-2.369,2.366l-4.063-4.062a1.338,1.338,0,0,0-1.893,1.892l4.063,4.064A1.716,1.716,0,0,1,32.361,53.4l-4.946-4.951a2.937,2.937,0,0,0-.534-3.654,2.864,2.864,0,0,0-4.026-.233,2.863,2.863,0,0,0-.235-4.026A2.864,2.864,0,0,0,18.6,40.3a2.857,2.857,0,0,0-.239-4.022,2.861,2.861,0,0,0-4.025-.239,2.862,2.862,0,0,0-.236-4.026,2.9,2.9,0,0,0-3.805-.412L2.282,23.588A1.34,1.34,0,0,0,.388,25.483L8.377,33.47,6.008,35.839a2.86,2.86,0,0,0,.239,4.025,2.861,2.861,0,0,0,4.023.236,2.86,2.86,0,0,0,.237,4.025,2.864,2.864,0,0,0,4.025.237,2.858,2.858,0,0,0,.236,4.023,2.861,2.861,0,0,0,4.025.239,2.86,2.86,0,0,0,.237,4.023,2.862,2.862,0,0,0,4.025.236l2.5-2.5,4.912,4.911a4.2,4.2,0,0,0,5.918-.237,4.527,4.527,0,0,0,1.331-2.929,4.6,4.6,0,0,0,4.265-4.262A4.581,4.581,0,0,0,46.24,43.6a4.51,4.51,0,0,0,2.931-1.333,4.2,4.2,0,0,0,.236-5.916l-2.071-2.073,8.5-8.5a1.339,1.339,0,0,0,0-1.893Z" transform="translate(0.003 -6.907)" fill="#c94858"/>
        </g>
        <g id="Group_38" data-name="Group 38" transform="translate(44.494)">
          <path id="Path_55" data-name="Path 55" d="M51.633,15.639,40.795,4.8a2.678,2.678,0,0,0-3.789,0L33.217,8.587a2.679,2.679,0,0,0,0,3.787L44.057,23.215a2.681,2.681,0,0,0,3.789,0l3.787-3.787A2.683,2.683,0,0,0,51.633,15.639Zm-5.689,5.52a2.2,2.2,0,1,1,2.2-2.2A2.2,2.2,0,0,1,45.944,21.158Z" transform="translate(-32.434 -4.016)" fill="#c94858"/>
        </g>
      </g>
    </g>
  </g>
</svg>
