<svg xmlns="http://www.w3.org/2000/svg" width="48.5" height="48.501" viewBox="0 0 48.5 48.501">
  <g id="cross-svgrepo-com" transform="translate(-0.002)">
    <path id="Path_62" data-name="Path 62" d="M28.578,24.25,48.185,4.644a1.082,1.082,0,0,0,0-1.53l-2.8-2.8a1.083,1.083,0,0,0-1.531,0L24.251,19.923,4.645.317a1.114,1.114,0,0,0-1.53,0l-2.8,2.8a1.081,1.081,0,0,0,0,1.53L19.925,24.25.319,43.857a1.081,1.081,0,0,0,0,1.53l2.8,2.8a1.082,1.082,0,0,0,1.53,0L24.252,28.578,43.858,48.184a1.083,1.083,0,0,0,1.531,0l2.8-2.8a1.082,1.082,0,0,0,0-1.53Z" fill="#0096a5"/>
  </g>
</svg>
