<svg xmlns="http://www.w3.org/2000/svg" width="60.198" height="71.096" viewBox="0 0 60.198 71.096">
  <g id="offer-svgrepo-com" transform="translate(-36.227 0)">
    <path id="Path_48" data-name="Path 48" d="M96.218,45.457,93.9,42.178l1.293-3.8a1.128,1.128,0,0,0-.278-1.169l-2.855-2.8.668-3.942a1.128,1.128,0,0,0-.449-1.1l-3.23-2.347.115-3.991a1.128,1.128,0,0,0-.592-1.026l-3.514-1.895-.418-3.971a1.128,1.128,0,0,0-.729-.939l-3.748-1.392-1-3.873a1.128,1.128,0,0,0-.873-.825L74.36,8.331,72.679,4.685A1.115,1.115,0,0,0,71.64,4.03L67.6,4.083,65.04.952A1.128,1.128,0,0,0,63.8.6L59.93,1.943,56.252.118a1.128,1.128,0,0,0-1.069.035l-6.525,3.8h0a1.123,1.123,0,0,0-.3.251L45.7,7.379l-4.08.709a1.128,1.128,0,0,0-.933,1.041l-.258,4.1-3.1,2.678a1.128,1.128,0,0,0-.317,1.252l1.43,3.784-2.064,3.469a1.128,1.128,0,0,0,.048,1.228l2.316,3.278-1.293,3.8a1.128,1.128,0,0,0,.278,1.169l2.855,2.8-.668,3.942a1.128,1.128,0,0,0,.449,1.1L43.6,44.074l-.116,3.991a1.128,1.128,0,0,0,.592,1.026l3.514,1.895.418,3.971a1.128,1.128,0,0,0,.729.94l3.748,1.392,1,3.873a1.128,1.128,0,0,0,.873.825l3.934.779,1.681,3.645A1.128,1.128,0,0,0,61,67.067h.015l4.037-.053,2.563,3.131a1.128,1.128,0,0,0,1.243.351l3.868-1.342L76.4,70.978a1.128,1.128,0,0,0,1.368-.287l2.654-3.179L84.5,66.8a1.124,1.124,0,0,0,.373-.137h0L91.4,62.872a1.128,1.128,0,0,0,.559-.9l.258-4.1,3.1-2.678a1.128,1.128,0,0,0,.317-1.252L94.2,50.154l2.065-3.47A1.13,1.13,0,0,0,96.218,45.457ZM83.239,64.732l-3.611.628a1.127,1.127,0,0,0-.673.388l-2.349,2.813-3.3-1.64a1.127,1.127,0,0,0-.871-.055L68.86,68.106l-2.408-2.942a1.147,1.147,0,0,0-.888-.413l-3.848.051L60.1,61.3a1.128,1.128,0,0,0-.805-.634l-3.8-.753-.968-3.757a1.128,1.128,0,0,0-.7-.776L50.18,54.025l-.407-3.868a1.128,1.128,0,0,0-.587-.875l-3.426-1.847.113-3.891a1.128,1.128,0,0,0-.464-.945l-3.146-2.286.65-3.833a1.128,1.128,0,0,0-.322-.994l-2.769-2.717,1.25-3.669a1.128,1.128,0,0,0-.147-1.015L38.7,24.935l1.968-3.307a1.128,1.128,0,0,0,.086-.976L39.409,17.1l2.859-2.473a1.128,1.128,0,0,0,.388-.782l.232-3.682L46.5,9.531a1.128,1.128,0,0,0,.673-.388L49.52,6.33l3.3,1.64a1.128,1.128,0,0,0,.871.055l3.571-1.239,2.408,2.942a1.118,1.118,0,0,0,.888.413l3.848-.051,1.615,3.5a1.128,1.128,0,0,0,.805.634l3.8.753.968,3.757a1.128,1.128,0,0,0,.7.776l3.644,1.354.407,3.868a1.128,1.128,0,0,0,.587.875l3.426,1.847-.113,3.891a1.128,1.128,0,0,0,.464.945l3.146,2.286-.65,3.833a1.128,1.128,0,0,0,.322.994L86.3,42.123l-1.25,3.669a1.128,1.128,0,0,0,.147,1.015l2.226,3.15L85.46,53.263a1.129,1.129,0,0,0-.086.976L86.717,57.8l-2.859,2.473a1.128,1.128,0,0,0-.388.782Z" transform="translate(0 0)" fill="#f0134d"/>
    <path id="Path_49" data-name="Path 49" d="M180.164,185.345a1.128,1.128,0,0,0-1.576.245l-12.381,16.945a1.128,1.128,0,1,0,1.822,1.331l12.381-16.945A1.128,1.128,0,0,0,180.164,185.345Z" transform="translate(-110.244 -157.282)" fill="#f0134d"/>
    <path id="Path_50" data-name="Path 50" d="M146.587,145.939a3.526,3.526,0,0,0,1.785-.468,4.341,4.341,0,0,0,1.937-3.978,11.268,11.268,0,0,0-5.193-8.994,4.34,4.34,0,0,0-4.414-.312c-2.4,1.383-2.589,5.385-.438,9.109a10.48,10.48,0,0,0,3.694,3.863A5.338,5.338,0,0,0,146.587,145.939Zm-4.369-5.771c-1.278-2.213-1.715-5.261-.387-6.027a1.3,1.3,0,0,1,.659-.16,3.144,3.144,0,0,1,1.5.476,9.042,9.042,0,0,1,4.058,7.029,1.764,1.764,0,0,1-2.973,1.716A8.328,8.328,0,0,1,142.218,140.168Z" transform="translate(-87.119 -111.907)" fill="#f0134d"/>
    <path id="Path_51" data-name="Path 51" d="M220.156,272.43a3.952,3.952,0,0,0-6.35,3.666A11.268,11.268,0,0,0,219,285.091a5.339,5.339,0,0,0,2.629.78,3.525,3.525,0,0,0,1.785-.468,4.341,4.341,0,0,0,1.937-3.978,11.269,11.269,0,0,0-5.193-8.994Zm2.128,11.018a2.27,2.27,0,0,1-2.164-.315,9.043,9.043,0,0,1-4.058-7.029,2.27,2.27,0,0,1,.809-2.032,1.3,1.3,0,0,1,.659-.16,3.144,3.144,0,0,1,1.5.476,9.042,9.042,0,0,1,4.058,7.029A2.269,2.269,0,0,1,222.284,283.449Z" transform="translate(-150.868 -230.791)" fill="#f0134d"/>
  </g>
</svg>
