<svg xmlns="http://www.w3.org/2000/svg" width="53" height="53" viewBox="0 0 53 53">
  <g id="profits-svgrepo-com" transform="translate(0 0.114)">
    <circle id="Ellipse_11" data-name="Ellipse 11" cx="26.5" cy="26.5" r="26.5" transform="translate(0 -0.114)" fill="#0096a5"/>
    <g id="Group_30" data-name="Group 30" transform="translate(10.923 10.171)">
      <path id="Path_44" data-name="Path 44" d="M105.463,280.141a1.317,1.317,0,0,1-1.317,1.316H98.953a1.316,1.316,0,0,1-1.316-1.316v-8.934a1.316,1.316,0,0,1,1.316-1.316h5.193a1.317,1.317,0,0,1,1.317,1.316v8.934Z" transform="translate(-97.637 -249.972)" fill="#fff"/>
      <path id="Path_45" data-name="Path 45" d="M202.693,228.662a1.317,1.317,0,0,1-1.317,1.316h-5.193a1.316,1.316,0,0,1-1.316-1.316V213.243a1.316,1.316,0,0,1,1.316-1.316h5.193a1.317,1.317,0,0,1,1.317,1.316Z" transform="translate(-183.989 -198.492)" fill="#fff"/>
      <path id="Path_46" data-name="Path 46" d="M274.477,100.36a.714.714,0,0,0-.095-.8.691.691,0,0,0-.088-.1l-7.4-7.395a.792.792,0,0,0-1.109.006L258.364,99.5a.791.791,0,0,0,.552,1.336h3.3v21.176a1.316,1.316,0,0,0,1.316,1.316h5.193a1.317,1.317,0,0,0,1.317-1.316V100.837h3.7a.665.665,0,0,0,.1-.008A.712.712,0,0,0,274.477,100.36Z" transform="translate(-240.186 -91.843)" fill="#fff"/>
    </g>
  </g>
</svg>
