<svg xmlns="http://www.w3.org/2000/svg" width="64.344" height="79.5" viewBox="0 0 64.344 79.5">
  <path id="Exclusion_4" data-name="Exclusion 4" d="M-2098.252-4279.5H-2123l18.172-40.266a11.825,11.825,0,0,1,10.752-6.959h.773v-24.822h6.92l.59-7.453,27.137,2.164-4.116,52.008-3.309-.263v5.716h-16.037a22.251,22.251,0,0,1-2.953,5.952,22.584,22.584,0,0,1-4.459,4.835,21.257,21.257,0,0,1-7.13,3.758l-1.593,5.329Zm8.661-26.086c0,.006,0,1.24,0,1.242a12.617,12.617,0,0,1-7.89,11.239,1.247,1.247,0,0,0-.677,1.62,1.234,1.234,0,0,0,1.146.772,1.23,1.23,0,0,0,.468-.092,15.51,15.51,0,0,0,9.184-11.056h14.068a6.571,6.571,0,0,1,4.739-5.211v-37.049a6.578,6.578,0,0,1-4.962-4.942h-12.252a6.559,6.559,0,0,1-5.06,4.964v29.2h-8.353a1.241,1.241,0,0,0-1.237,1.242,1.241,1.241,0,0,0,1.237,1.242l22.282.015a3.37,3.37,0,0,1,2.424,1.025,3.392,3.392,0,0,1,.97,2.449,3.474,3.474,0,0,1-3.505,3.344Zm23.511-45.961v39.308a6.432,6.432,0,0,1,1.448-.457l2.923-36.933a6.582,6.582,0,0,1-4.556-5.321l-12.213-.974h0a6.577,6.577,0,0,1-1.731,2.783,6.543,6.543,0,0,1-2.84,1.594Zm-10.685,33.383h-2.846l-5.046-5.9-.009-1.522h2.508a3,3,0,0,0,1.76-.463,2.221,2.221,0,0,0,.867-1.22h-5.333l.506-1.812h4.788c-.323-1.023-1.206-1.543-2.628-1.543h-2.666l.535-2.03h9.339l-.506,1.821h-2.162a4.174,4.174,0,0,1,.655,1.752h2l-.5,1.812h-1.5a3.7,3.7,0,0,1-1.31,2.513,5.651,5.651,0,0,1-3.083,1.04l4.621,5.425v.128Z" transform="translate(2123 4359)" fill="#ff7400"/>
</svg>
