<svg xmlns="http://www.w3.org/2000/svg" width="44.019" height="53.128" viewBox="0 0 44.019 53.128">
  <path id="Exclusion_5" data-name="Exclusion 5" d="M-3679.69-4398.872h0c-.99-.14-2-.28-2.972-.416l-.052-.007c-2.795-.389-5.685-.791-8.541-1.226a8.182,8.182,0,0,1-2.14-.748c-2.452-1.144-3.038-2.35-2.323-4.78a44.41,44.41,0,0,1,3.058-8.136,15.152,15.152,0,0,1,3.212-3.745c.253-.238.5-.471.739-.7a3.216,3.216,0,0,1,2.261-1.083,3.977,3.977,0,0,1,2,.646,9.466,9.466,0,0,0,4.848,1.377,10.776,10.776,0,0,0,5.651-1.73,2.272,2.272,0,0,1,1.2-.412,2.2,2.2,0,0,1,1.129.372,14.758,14.758,0,0,1,6.2,7.1,48.31,48.31,0,0,1,2.108,6.785c.522,2.06-.033,3.241-1.858,3.948a38.143,38.143,0,0,1-7.326,1.98,38.977,38.977,0,0,1-4.952.411h-.029c-.708.029-1.441.059-2.158.1l-.057.26Zm.16-21.185h-.049a8.28,8.28,0,0,1-5.9-2.429,8.292,8.292,0,0,1-2.436-5.9,8.252,8.252,0,0,1,2.411-5.9,8.31,8.31,0,0,1,5.919-2.407h.031a8.342,8.342,0,0,1,5.938,2.468,8.224,8.224,0,0,1,2.4,5.9,8.256,8.256,0,0,1-2.473,5.816A8.322,8.322,0,0,1-3679.53-4420.057Zm13.725-8.452h0l.987-1.8.852-1.553c-.453-.059-.873-.107-1.179-.143-.688-.08-1.231-.143-1.781-.249-3.138-.6-4.7-2.312-4.908-5.379a59.384,59.384,0,0,1-.036-7.451c.2-3.356,1.78-5.194,4.844-5.618a33.289,33.289,0,0,1,4.542-.3,41.523,41.523,0,0,1,4.494.252,5.274,5.274,0,0,1,4.91,5.234,44.593,44.593,0,0,1-.019,7.933,5.945,5.945,0,0,1-1.728,3.972,7.108,7.108,0,0,1-4.178,1.552,3.354,3.354,0,0,0-1.846.941,7.849,7.849,0,0,1-4.952,2.608Zm-.045-13.328.008,1.1,3.664,4.252h2.066v-.094l-3.355-3.908a4.128,4.128,0,0,0,2.24-.748,2.663,2.663,0,0,0,.95-1.812h1.087l.361-1.305h-1.455a2.994,2.994,0,0,0-.475-1.261h1.57l.367-1.313h-6.782l-.389,1.464h1.937c1.032,0,1.674.374,1.908,1.111h-3.478l-.367,1.305h3.873a1.607,1.607,0,0,1-.63.879,2.187,2.187,0,0,1-1.278.333Z" transform="translate(3696.442 4451.5)" fill="#0096a5" stroke="rgba(0,0,0,0)" stroke-miterlimit="10" stroke-width="1"/>
</svg>
