<svg xmlns="http://www.w3.org/2000/svg" width="46.245" height="49.666" viewBox="0 0 46.245 49.666">
  <path id="award-success-win-winner-svgrepo-com" d="M50.569,26.456a16.276,16.276,0,0,0,10.752-15.29l-.038-1.718H51.4V5H25V9.448H15.114l-.038,1.718a16.276,16.276,0,0,0,10.752,15.29,13.1,13.1,0,0,0,8.455,7.617V38.11a6.219,6.219,0,0,1-6.057,5.855V47.6H25v7.066H51.4V47.6h-3.23V43.965a6.218,6.218,0,0,1-6.057-5.855V34.072A13.1,13.1,0,0,0,50.569,26.456ZM51.4,12.874h6.17c-.012.086-.021.205-.035.291A12.651,12.651,0,0,1,51.4,22.049C51.407,21.86,51.4,12.874,51.4,12.874Zm-32.542.291c-.014-.086-.022-.2-.035-.291H25s-.005,8.986,0,9.176A12.652,12.652,0,0,1,18.859,13.165ZM38.2,21.51l-4.089,2.73,1.332-4.733-3.86-3.046,4.913-.2,1.7-4.612,1.7,4.612,4.913.2-3.86,3.046,1.332,4.733Z" transform="translate(-15.076 -5)" fill="#0096a5"/>
</svg>
