<svg xmlns="http://www.w3.org/2000/svg" width="65.268" height="65.178" viewBox="0 0 65.268 65.178">
  <g id="seller-svgrepo-com" transform="translate(0 -0.354)">
    <g id="Group_36" data-name="Group 36" transform="translate(0 0.354)">
      <path id="Path_53" data-name="Path 53" d="M62.037,50.177c-6.527-3.435-11.519-5.341-15.952-6.095l.483-.664a1.085,1.085,0,0,0,.175-.9l-1.01-4.039a23.248,23.248,0,0,0,4.306-13.1V17.759a17.4,17.4,0,1,0-34.81,0v7.615a23.249,23.249,0,0,0,4.306,13.1l-1.009,4.039a1.086,1.086,0,0,0,.175.9l.483.664c-4.433.754-9.425,2.66-15.952,6.095A6.036,6.036,0,0,0,0,55.533v8.911a1.087,1.087,0,0,0,1.088,1.088H27.2l10.826-.01c.017,0,.034.01.051.01H64.181a1.087,1.087,0,0,0,1.088-1.088V55.533A6.035,6.035,0,0,0,62.037,50.177ZM17.4,25.374V17.759a15.229,15.229,0,0,1,30.459,0v7.615a20,20,0,0,1-4.3,12.442,1.112,1.112,0,0,0-.121.1q-.561.718-1.161,1.354l-.006.007c-.263.281-.54.53-.813.785a13.571,13.571,0,0,1-8.833,3.8,13.571,13.571,0,0,1-8.833-3.8c-.273-.256-.549-.5-.813-.785l-.007-.007q-.6-.636-1.161-1.354a1.112,1.112,0,0,0-.121-.1A19.994,19.994,0,0,1,17.4,25.374ZM35.311,53.657H29.957l2.677-6.024ZM20.759,42.549l.488-1.952.009.009A15.987,15.987,0,0,0,31,45.938h.005l-2.951,6.642Zm7.654,20.807.843-7.523h6.757l.077.689.766,6.827Zm8.8-10.775-2.951-6.642h.005a15.987,15.987,0,0,0,9.745-5.331l.009-.009.487,1.952Z" transform="translate(0 -0.354)" fill="#303960"/>
    </g>
  </g>
</svg>
